<svg xmlns="http://www.w3.org/2000/svg" xmlns:xlink="http://www.w3.org/1999/xlink" height="48" width="48"><defs><linearGradient id="b"><stop stop-color="#00ff80" offset="0"/><stop stop-color="#0080ff" offset="1" stop-opacity="0"/></linearGradient><linearGradient id="a"><stop offset="0" stop-color="#00ff80"/><stop offset="1" stop-color="#0080ff"/></linearGradient><linearGradient xlink:href="#a" id="c" x1="3.874" y1="9.231" x2="45.443" y2="43.4" gradientUnits="userSpaceOnUse"/><linearGradient xlink:href="#b" id="d" gradientUnits="userSpaceOnUse" x1="2.58" y1="35.406" x2="28.185" y2="35.67"/></defs><g fill="none" stroke="url(#c)" stroke-width="1.274"><path d="M2.294 37.261h44.139v-3.25H2.294" stroke="url(#d)"/><path d="M45.331 17.4v-5.92a1.688 1.662 0 0 0-1.694-1.663H15.62l-.013-1.083c-.006-.56-.513-1.084-1.1-1.084H3.866c-.635 0-1.1.43-1.1 1.084v11.915"/><path d="M19.094 17.4c-1.19 0-1.637.608-1.637 1.537 0 .92-.756 1.713-1.696 1.713H2.404c-.426 0-.74.283-.74.728v21.296c0 .644.618 1.087 1.097 1.087H45.32c.783 0 1.113-.49 1.113-1.073V19.063c0-.921-.756-1.662-1.696-1.662z"/></g><g transform="matrix(1.2 0 0 1.2 21.6 24)"><defs><linearGradient id="e"><stop stop-color="#00ff80" offset="0"/><stop stop-color="#0080ff" offset="1"/></linearGradient><linearGradient xlink:href="#e" id="f" x1="6" y1="11" x2="16" y2="11" gradientUnits="userSpaceOnUse"/></defs><g fill="none" stroke="url(#f)" stroke-width="1.021" stroke-linecap="round" stroke-linejoin="round"><path d="M7.456 2.266l-5.22 3.367L5.953 8.42l5.18-3.075zM16.5 8.768l-5.296 3.19 3.646 2.98 5.255-3.427zM5.95 14.08v1.73l5.299 3.125"/><path d="M14.943 2.272l-3.671 3.074 5.187 3.126 3.642-2.828zM5.951 8.849L2.32 11.541l5.191 3.401c1.215-.959 2.44-2.138 3.693-2.985zm5.299 10.088l5.144-3.155.024-.538-.024-1.329-1.515 1.108-3.675-3.066"/></g></g></svg>