<svg xmlns="http://www.w3.org/2000/svg" xmlns:xlink="http://www.w3.org/1999/xlink" height="48" width="48"><defs><linearGradient id="b"><stop stop-color="#00ff80" offset="0"/><stop stop-color="#0080ff" offset="1" stop-opacity="0"/></linearGradient><linearGradient id="a"><stop offset="0" stop-color="#00ff80"/><stop offset="1" stop-color="#0080ff"/></linearGradient><linearGradient xlink:href="#a" id="d" x1="3.874" y1="9.231" x2="45.443" y2="43.4" gradientUnits="userSpaceOnUse"/><linearGradient xlink:href="#b" id="f" gradientUnits="userSpaceOnUse" x1="2.58" y1="35.406" x2="28.185" y2="35.67"/><linearGradient id="c"><stop offset="0" stop-color="#ff0179"/><stop offset="1" stop-color="#ff023d" stop-opacity=".902"/></linearGradient><linearGradient xlink:href="#c" id="e" x1="1.027" y1="30.581" x2="47.07" y2="30.581" gradientUnits="userSpaceOnUse"/></defs><g fill="none" stroke="url(#d)" stroke-width="1.274"><path d="M45.331 17.4v-5.92a1.688 1.662 0 0 0-1.694-1.663H15.62l-.013-1.083c-.006-.56-.513-1.084-1.1-1.084H3.866c-.635 0-1.1.43-1.1 1.084v11.915"/><path d="M19.094 17.4c-1.19 0-1.637.608-1.637 1.537 0 .92-.756 1.713-1.696 1.713H2.404c-.426 0-.74.283-.74.728v21.296c0 .644.618 1.087 1.097 1.087H45.32c.783 0 1.113-.49 1.113-1.073V19.063c0-.921-.756-1.662-1.696-1.662z" fill="url(#e)"/><path d="M2.294 37.261h44.139v-3.25H2.294" stroke="url(#f)"/></g><g transform="matrix(1.2 0 0 1.2 21.6 24)"><defs><linearGradient id="g"><stop stop-color="#00ff80" offset="0"/><stop stop-color="#0080ff" offset="1"/></linearGradient><linearGradient xlink:href="#g" id="h" x1="6" y1="11" x2="16" y2="11" gradientUnits="userSpaceOnUse"/></defs><path d="M13 3h-2L3 19h2zm-2 15h8v1h-8z" fill="url(#h)"/></g></svg>