<svg xmlns="http://www.w3.org/2000/svg" xmlns:xlink="http://www.w3.org/1999/xlink" height="48" width="48"><defs><linearGradient id="b"><stop stop-color="#00ff80" offset="0"/><stop stop-color="#0080ff" offset="1" stop-opacity="0"/></linearGradient><linearGradient id="a"><stop offset="0" stop-color="#00ff80"/><stop offset="1" stop-color="#0080ff"/></linearGradient><linearGradient xlink:href="#a" id="c" x1="3.874" y1="9.231" x2="45.443" y2="43.4" gradientUnits="userSpaceOnUse"/><linearGradient xlink:href="#b" id="d" gradientUnits="userSpaceOnUse" x1="2.58" y1="35.406" x2="28.185" y2="35.67"/></defs><g fill="none" stroke="url(#c)" stroke-width="1.274"><path d="M2.294 37.261h44.139v-3.25H2.294" stroke="url(#d)"/><path d="M45.331 17.4v-5.92a1.688 1.662 0 0 0-1.694-1.663H15.62l-.013-1.083c-.006-.56-.513-1.084-1.1-1.084H3.866c-.635 0-1.1.43-1.1 1.084v11.915"/><path d="M19.094 17.4c-1.19 0-1.637.608-1.637 1.537 0 .92-.756 1.713-1.696 1.713H2.404c-.426 0-.74.283-.74.728v21.296c0 .644.618 1.087 1.097 1.087H45.32c.783 0 1.113-.49 1.113-1.073V19.063c0-.921-.756-1.662-1.696-1.662z"/></g><g transform="matrix(1.2 0 0 1.2 21.6 24)"><defs><linearGradient id="e"><stop stop-color="#00ff80" offset="0"/><stop stop-color="#0080ff" offset="1"/></linearGradient><linearGradient xlink:href="#e" id="f" x1="6" y1="11" x2="16" y2="11" gradientUnits="userSpaceOnUse"/></defs><g fill="url(#f)"><path d="M7 8v1H6v1h1v1h1v-1h1V9H8V8zm7.5 1.9a.6.6 0 0 0-.6.6.6.6 0 0 0 .6.6.6.6 0 0 0 .6-.6.6.6 0 0 0-.6-.6zm1-1a.6.6 0 0 0-.6.6.6.6 0 0 0 .6.6.6.6 0 0 0 .6-.6.6.6 0 0 0-.6-.6zm-2 0a.6.6 0 0 0-.6.6.6.6 0 0 0 .6.6.6.6 0 0 0 .6-.6.6.6 0 0 0-.6-.6zm1-1a.6.6 0 0 0-.6.6.6.6 0 0 0 .6.6.6.6 0 0 0 .6-.6.6.6 0 0 0-.6-.6z"/><path d="M6 6c-1.657 0-3 2.239-3 5v3.5a1.5 1.5 0 0 0 2.56 1.06l2.536-2.535A1.5 1.5 0 0 0 11 12.5a1.5 1.5 0 0 0 2.904.525l2.535 2.536A1.5 1.5 0 0 0 19 14.5V11c0-2.761-1.343-5-3-5zm0 1h10c1.105 0 2 1.79 2 4v3.5a.5.5 0 0 1-.854.354L14.293 12H13v.5a.5.5 0 0 1-1 0V12h-2v.5a.5.5 0 0 1-1 0V12H7.707l-2.853 2.854A.5.5 0 0 1 4 14.5V11c0-2.21.895-4 2-4z"/></g></g></svg>