<svg xmlns="http://www.w3.org/2000/svg" xmlns:xlink="http://www.w3.org/1999/xlink" height="48" width="48"><defs><linearGradient id="b"><stop stop-color="#00ff80" offset="0"/><stop stop-color="#0080ff" offset="1" stop-opacity="0"/></linearGradient><linearGradient id="a"><stop offset="0" stop-color="#00ff80"/><stop offset="1" stop-color="#0080ff"/></linearGradient><linearGradient xlink:href="#a" id="c" x1="3.874" y1="9.231" x2="45.443" y2="43.4" gradientUnits="userSpaceOnUse"/><linearGradient xlink:href="#b" id="d" gradientUnits="userSpaceOnUse" x1="2.58" y1="35.406" x2="28.185" y2="35.67"/></defs><g fill="none" stroke="url(#c)" stroke-width="1.274"><path d="M2.294 37.261h44.139v-3.25H2.294" stroke="url(#d)"/><path d="M45.331 17.4v-5.92a1.688 1.662 0 0 0-1.694-1.663H15.62l-.013-1.083c-.006-.56-.513-1.084-1.1-1.084H3.866c-.635 0-1.1.43-1.1 1.084v11.915"/><path d="M19.094 17.4c-1.19 0-1.637.608-1.637 1.537 0 .92-.756 1.713-1.696 1.713H2.404c-.426 0-.74.283-.74.728v21.296c0 .644.618 1.087 1.097 1.087H45.32c.783 0 1.113-.49 1.113-1.073V19.063c0-.921-.756-1.662-1.696-1.662z"/></g><g transform="matrix(1.2 0 0 1.2 21.6 24)"><defs><linearGradient id="e"><stop stop-color="#00ff80" offset="0"/><stop stop-color="#0080ff" offset="1"/></linearGradient><linearGradient xlink:href="#e" id="f" x1="6" y1="11" x2="16" y2="11" gradientUnits="userSpaceOnUse"/></defs><path d="M17.853 2.29c-1.188-.041-2.307 1.106-3.038 1.62-.876-.266-2.144-.414-3.097-.42a11.755 11.755 0 0 0-3.207.42c-.968-.456-1.928-1.646-3.015-1.594-.617 1.612-.226 2.803-.11 3.098-.727.818-.839 1.865-.839 3.142 0 4.488 2.322 5.492 4.847 5.788-.325.291-.522.81-.626 1.566-.647.301-1.895 1.113-2.91-.675 0 0-.163-1.304-1.305-1.386 0 0-2.478.077-1.446.805 0 0 1.422.147 1.94 1.5 0 0 .538 2.279 3.7 1.57 0 .261.064 2.513.064 2.513l3.392.033 2.584-.116s.365-1.874.365-2.42c0-1.092-.794-3.037-1.202-3.399 2.532-.289 5.008-1.28 5.008-5.779 0-1.278-.08-2.323-.808-3.142.117-.295.507-1.486-.113-3.1 0 0-.06-.018-.184-.024z" fill="url(#f)"/></g></svg>