<svg xmlns="http://www.w3.org/2000/svg" xmlns:xlink="http://www.w3.org/1999/xlink" height="48" width="48"><defs><linearGradient id="b"><stop stop-color="#00ff80" offset="0"/><stop stop-color="#0080ff" offset="1" stop-opacity="0"/></linearGradient><linearGradient id="a"><stop offset="0" stop-color="#00ff80"/><stop offset="1" stop-color="#0080ff"/></linearGradient><linearGradient xlink:href="#a" id="c" x1="3.874" y1="9.231" x2="45.443" y2="43.4" gradientUnits="userSpaceOnUse"/><linearGradient xlink:href="#b" id="d" gradientUnits="userSpaceOnUse" x1="2.58" y1="35.406" x2="28.185" y2="35.67"/></defs><g fill="none" stroke="url(#c)" stroke-width="1.274"><path d="M2.294 37.261h44.139v-3.25H2.294" stroke="url(#d)"/><path d="M45.331 17.4v-5.92a1.688 1.662 0 0 0-1.694-1.663H15.62l-.013-1.083c-.006-.56-.513-1.084-1.1-1.084H3.866c-.635 0-1.1.43-1.1 1.084v11.915"/><path d="M19.094 17.4c-1.19 0-1.637.608-1.637 1.537 0 .92-.756 1.713-1.696 1.713H2.404c-.426 0-.74.283-.74.728v21.296c0 .644.618 1.087 1.097 1.087H45.32c.783 0 1.113-.49 1.113-1.073V19.063c0-.921-.756-1.662-1.696-1.662z"/></g><g transform="matrix(1.2 0 0 1.2 21.6 24)"><defs><linearGradient id="e"><stop stop-color="#00ff80" offset="0"/><stop stop-color="#0080ff" offset="1"/></linearGradient><linearGradient xlink:href="#e" id="f" x1="6" y1="11" x2="16" y2="11" gradientUnits="userSpaceOnUse"/></defs><path d="M14 3c-1.662 0-3 1.338-3 3s1.338 3 3 3 3-1.338 3-3-1.338-3-3-3zm0 1a2 2 0 0 1 2 2 2 2 0 0 1-2 2 2 2 0 0 1-2-2 2 2 0 0 1 2-2zM8 6C6.338 6 5 7.338 5 9s1.338 3 3 3 3-1.338 3-3-1.338-3-3-3zm0 1a2 2 0 0 1 2 2 2 2 0 0 1-2 2 2 2 0 0 1-2-2 2 2 0 0 1 2-2zm6 3c-.646 0-1.256.134-1.818.361l.455.914c.428-.16.877-.275 1.363-.275 2.216 0 4 1.784 4 4h-3.5l.5 1h4v-1c0-2.77-2.23-5-5-5zm-6 3c-2.77 0-5 2.23-5 5v1h10v-1c0-2.77-2.23-5-5-5zm0 1c2.216 0 4 1.784 4 4H4c0-2.216 1.784-4 4-4z" fill="url(#f)"/></g></svg>