<svg xmlns="http://www.w3.org/2000/svg" xmlns:xlink="http://www.w3.org/1999/xlink" height="48" width="48"><defs><linearGradient id="b"><stop stop-color="#00ff80" offset="0"/><stop stop-color="#0080ff" offset="1" stop-opacity="0"/></linearGradient><linearGradient id="a"><stop offset="0" stop-color="#00ff80"/><stop offset="1" stop-color="#0080ff"/></linearGradient><linearGradient xlink:href="#a" id="c" x1="3.874" y1="9.231" x2="45.443" y2="43.4" gradientUnits="userSpaceOnUse"/><linearGradient xlink:href="#b" id="d" gradientUnits="userSpaceOnUse" x1="2.58" y1="35.406" x2="28.185" y2="35.67"/></defs><g fill="none" stroke="url(#c)" stroke-width="1.274"><path d="M2.294 37.261h44.139v-3.25H2.294" stroke="url(#d)"/><path d="M45.331 17.4v-5.92a1.688 1.662 0 0 0-1.694-1.663H15.62l-.013-1.083c-.006-.56-.513-1.084-1.1-1.084H3.866c-.635 0-1.1.43-1.1 1.084v11.915"/><path d="M19.094 17.4c-1.19 0-1.637.608-1.637 1.537 0 .92-.756 1.713-1.696 1.713H2.404c-.426 0-.74.283-.74.728v21.296c0 .644.618 1.087 1.097 1.087H45.32c.783 0 1.113-.49 1.113-1.073V19.063c0-.921-.756-1.662-1.696-1.662z"/></g><g transform="matrix(1.2 0 0 1.2 21.6 24)"><defs><linearGradient xlink:href="#e" id="f" x1="2" y1="11" x2="20" y2="11" gradientUnits="userSpaceOnUse"/><linearGradient id="e"><stop offset="0" stop-color="#00ff80"/><stop offset="1" stop-color="#0080ff"/></linearGradient></defs><path d="M11 4a6 6 0 0 0-6 6 6 6 0 0 0 .004.129A4 4 0 0 0 2 14a4 4 0 0 0 4 4h9a5 5 0 0 0 5-5 5 5 0 0 0-3.242-4.676A6 6 0 0 0 11 4zm0 1a5 5 0 0 1 4.92 4.111A4 4 0 0 1 19 13a4 4 0 0 1-4 4H6a3 3 0 0 1-3-3 3 3 0 0 1 3-3 3 3 0 0 1 .107.006A5 5 0 0 1 6 10a5 5 0 0 1 5-5z" fill="url(#f)" color="#232629"/></g></svg>