<svg xmlns="http://www.w3.org/2000/svg" xmlns:xlink="http://www.w3.org/1999/xlink" viewBox="0 0 48 48"><defs><linearGradient id="a"><stop offset="0" stop-color="#89ff60"/><stop offset="1" stop-color="#c7ff00"/></linearGradient><linearGradient xlink:href="#a" id="c" x1="17.364" y1="21.823" x2="49.024" y2="21.823" gradientUnits="userSpaceOnUse" gradientTransform="matrix(1.04964 0 0 1.20134 -5.374 -2.66)"/><linearGradient xlink:href="#a" id="b" x1="7.106" y1="30.906" x2="20.095" y2="30.906" gradientUnits="userSpaceOnUse" gradientTransform="translate(-5.374 -2.66) scale(1.12293)"/></defs><path d="M5.523 20.377H8.44v5.835h2.917v-5.835h2.919v5.835h2.916v2.916h-2.916v5.835h2.916v2.916h-2.916v5.835h-2.919v-5.835H8.438v5.835H5.521v-5.835H2.605v-2.916h2.916v-5.835H2.605v-2.916h2.916zm2.917 8.75v5.836h2.917v-5.835z" fill="url(#b)"/><path style="line-height:1.25;-inkscape-font-specification:'cmbx10, Normal';font-variant-ligatures:normal;font-variant-position:normal;font-variant-caps:normal;font-variant-numeric:normal;font-variant-alternates:normal;font-feature-settings:normal;text-indent:0;text-align:start;text-decoration-line:none;text-decoration-style:solid;text-decoration-color:#000;text-transform:none;text-orientation:mixed;white-space:normal;shape-padding:0;isolation:auto;mix-blend-mode:normal;solid-color:#000;solid-opacity:1" d="M18.39 37.5l.014 2.236 22.179-.085.005-2.151m-6.863 0V9.639h2.278c2.275 0 3.77.612 4.675 1.66.473.552.836 1.37 1.044 2.545l.003.007v.004c.236 1.26.432 2.852.576 4.761l.073.989h4.177L45.445 4.841H13.488l-1.105 14.763h4.164l.087-.968c.202-2.25.412-3.937.617-5.017v-.003c.203-1.018.546-1.764 1.008-2.321.903-1.043 2.413-1.657 4.717-1.657h2.302v27.86M15.223 7.005H43.71l.781 10.44h-.43c-.136-1.49-.282-2.93-.49-4.043-.261-1.463-.76-2.7-1.541-3.616l-.003-.002c-1.377-1.595-3.449-2.306-6.025-2.306h-4.168v32.185h-4.668l5.76.053v-2.25l-5.76-.023V7.475h-4.19c-2.605 0-4.69.708-6.069 2.306l-.006.008-.006.004c-.734.88-1.223 2.024-1.486 3.343l-.003.005v.006c-.191 1.003-.362 2.587-.533 4.296h-.432z" font-weight="400" font-size="42.793" letter-spacing="0" word-spacing="0" overflow="visible" color="#000" font-family="cmbx10" fill="url(#c)"/></svg>