<svg xmlns="http://www.w3.org/2000/svg" xmlns:xlink="http://www.w3.org/1999/xlink" viewBox="0 0 48 48"><defs><linearGradient id="a"><stop offset="0" stop-color="#42eb00"/><stop offset="1" stop-color="#fff100"/></linearGradient><linearGradient xlink:href="#a" id="b" x1="4.717" y1="7.186" x2="9.033" y2="10.786" gradientUnits="userSpaceOnUse" gradientTransform="matrix(3.75707 0 0 5.91653 -.328 -23.578)"/></defs><g transform="matrix(0 -1 -1 0 48.43 49.218)"><rect width="10.602" height="4.358" x="19.893" y="6.069" rx="1.059" fill="none" stroke="#888" stroke-width=".9"/><path d="M17.563 10.307a3.096 3.096 0 0 0-3.047 3.054v25.713c0 1.65 1.398 3.055 3.047 3.055h15.232c1.649 0 2.926-1.402 2.926-3.055V13.361c0-1.65-1.277-3.054-2.926-3.054z" color="#000" fill="none" stroke="#888" stroke-width="1.059" stroke-opacity=".941"/><path d="M16.632 40.24H33.61l-.036-11.81-16.942-8.308z" fill="url(#b)"/><path d="M32.304 23.27l-6.771-2.45v-5.39h-1.87v6.125l4.165 1.715-10.045 3.92 5.88 2.45v5.39h1.87v-6.125L22.26 27.19z" fill="none" stroke="#888" stroke-width="1.122" stroke-linecap="square" stroke-linejoin="bevel"/></g></svg>